<mxfile host="app.diagrams.net" modified="2024-03-13T14:07:17.047Z" agent="Mozilla/5.0 (Windows NT 10.0; Win64; x64) AppleWebKit/537.36 (KHTML, like Gecko) Chrome/122.0.0.0 Safari/537.36" etag="ymUuvmefN7OE6B9K6Jw5" version="24.0.5" type="github">
  <diagram name="第 1 页" id="v4PLKLkjullXmdCW0b4M">
    <mxGraphModel dx="1195" dy="622" grid="1" gridSize="10" guides="1" tooltips="1" connect="1" arrows="1" fold="1" page="1" pageScale="1" pageWidth="827" pageHeight="1169" math="0" shadow="0">
      <root>
        <mxCell id="0" />
        <mxCell id="1" parent="0" />
        <mxCell id="cKlX9IGwv4N4A4zVIS19-85" value="开发、提测、发版" style="html=1;align=left;spacingLeft=2;endArrow=block;rounded=0;edgeStyle=orthogonalEdgeStyle;curved=0;rounded=0;" edge="1" parent="1" target="cKlX9IGwv4N4A4zVIS19-90">
          <mxGeometry relative="1" as="geometry">
            <mxPoint x="265" y="290" as="sourcePoint" />
            <Array as="points">
              <mxPoint x="295" y="320" />
            </Array>
          </mxGeometry>
        </mxCell>
        <mxCell id="cKlX9IGwv4N4A4zVIS19-86" value="润典" style="shape=umlActor;verticalLabelPosition=bottom;verticalAlign=top;html=1;" vertex="1" parent="1">
          <mxGeometry x="250" y="150" width="30" height="60" as="geometry" />
        </mxCell>
        <mxCell id="cKlX9IGwv4N4A4zVIS19-87" value="oppo" style="shape=umlActor;verticalLabelPosition=bottom;verticalAlign=top;html=1;" vertex="1" parent="1">
          <mxGeometry x="550" y="150" width="30" height="60" as="geometry" />
        </mxCell>
        <mxCell id="cKlX9IGwv4N4A4zVIS19-88" value="" style="endArrow=none;dashed=1;html=1;rounded=0;" edge="1" parent="1">
          <mxGeometry width="50" height="50" relative="1" as="geometry">
            <mxPoint x="565" y="790" as="sourcePoint" />
            <mxPoint x="564.66" y="234" as="targetPoint" />
          </mxGeometry>
        </mxCell>
        <mxCell id="cKlX9IGwv4N4A4zVIS19-89" value="" style="endArrow=none;dashed=1;html=1;rounded=0;" edge="1" parent="1">
          <mxGeometry width="50" height="50" relative="1" as="geometry">
            <mxPoint x="265" y="369.9999999999999" as="sourcePoint" />
            <mxPoint x="265" y="230" as="targetPoint" />
          </mxGeometry>
        </mxCell>
        <mxCell id="cKlX9IGwv4N4A4zVIS19-90" value="" style="html=1;points=[[0,0,0,0,5],[0,1,0,0,-5],[1,0,0,0,5],[1,1,0,0,-5]];perimeter=orthogonalPerimeter;outlineConnect=0;targetShapes=umlLifeline;portConstraint=eastwest;newEdgeStyle={&quot;curved&quot;:0,&quot;rounded&quot;:0};" vertex="1" parent="1">
          <mxGeometry x="260" y="250" width="10" height="100" as="geometry" />
        </mxCell>
        <mxCell id="cKlX9IGwv4N4A4zVIS19-91" value="" style="endArrow=none;dashed=1;html=1;rounded=0;" edge="1" parent="1" source="cKlX9IGwv4N4A4zVIS19-101" target="cKlX9IGwv4N4A4zVIS19-97">
          <mxGeometry width="50" height="50" relative="1" as="geometry">
            <mxPoint x="265" y="860" as="sourcePoint" />
            <mxPoint x="265" y="590" as="targetPoint" />
          </mxGeometry>
        </mxCell>
        <mxCell id="cKlX9IGwv4N4A4zVIS19-92" value="" style="endArrow=classic;endFill=1;html=1;rounded=0;" edge="1" parent="1">
          <mxGeometry width="160" relative="1" as="geometry">
            <mxPoint x="270" y="518.8600000000001" as="sourcePoint" />
            <mxPoint x="270" y="518.8600000000001" as="targetPoint" />
          </mxGeometry>
        </mxCell>
        <mxCell id="cKlX9IGwv4N4A4zVIS19-93" value="拉取和合并润典的master分支代码到oppo仓库" style="text;html=1;align=center;verticalAlign=middle;resizable=0;points=[];autosize=1;strokeColor=none;fillColor=none;" vertex="1" parent="1">
          <mxGeometry x="285" y="495" width="270" height="30" as="geometry" />
        </mxCell>
        <mxCell id="cKlX9IGwv4N4A4zVIS19-94" value="" style="html=1;points=[[0,0,0,0,5],[0,1,0,0,-5],[1,0,0,0,5],[1,1,0,0,-5]];perimeter=orthogonalPerimeter;outlineConnect=0;targetShapes=umlLifeline;portConstraint=eastwest;newEdgeStyle={&quot;curved&quot;:0,&quot;rounded&quot;:0};" vertex="1" parent="1">
          <mxGeometry x="560" y="490" width="10" height="110" as="geometry" />
        </mxCell>
        <mxCell id="cKlX9IGwv4N4A4zVIS19-95" value="基于润典最新的代码&lt;div&gt;进行开发、提测和发布&lt;/div&gt;" style="html=1;align=left;spacingLeft=2;endArrow=block;rounded=0;edgeStyle=orthogonalEdgeStyle;curved=0;rounded=0;" edge="1" parent="1">
          <mxGeometry relative="1" as="geometry">
            <mxPoint x="570" y="550" as="sourcePoint" />
            <Array as="points">
              <mxPoint x="600" y="550" />
              <mxPoint x="600" y="580" />
            </Array>
            <mxPoint x="570" y="580.0000000000002" as="targetPoint" />
          </mxGeometry>
        </mxCell>
        <mxCell id="cKlX9IGwv4N4A4zVIS19-96" value="合并发布代码&lt;div&gt;到master分支&lt;/div&gt;" style="html=1;align=left;spacingLeft=2;endArrow=block;rounded=0;edgeStyle=orthogonalEdgeStyle;curved=0;rounded=0;" edge="1" parent="1" target="cKlX9IGwv4N4A4zVIS19-97">
          <mxGeometry relative="1" as="geometry">
            <mxPoint x="265" y="410" as="sourcePoint" />
            <Array as="points">
              <mxPoint x="295" y="440" />
            </Array>
          </mxGeometry>
        </mxCell>
        <mxCell id="cKlX9IGwv4N4A4zVIS19-97" value="" style="html=1;points=[[0,0,0,0,5],[0,1,0,0,-5],[1,0,0,0,5],[1,1,0,0,-5]];perimeter=orthogonalPerimeter;outlineConnect=0;targetShapes=umlLifeline;portConstraint=eastwest;newEdgeStyle={&quot;curved&quot;:0,&quot;rounded&quot;:0};" vertex="1" parent="1">
          <mxGeometry x="260" y="370" width="10" height="110" as="geometry" />
        </mxCell>
        <mxCell id="cKlX9IGwv4N4A4zVIS19-98" value="开发、提测、发版" style="html=1;align=left;spacingLeft=2;endArrow=block;rounded=0;edgeStyle=orthogonalEdgeStyle;curved=0;rounded=0;" edge="1" parent="1" target="cKlX9IGwv4N4A4zVIS19-102">
          <mxGeometry relative="1" as="geometry">
            <mxPoint x="265" y="670" as="sourcePoint" />
            <Array as="points">
              <mxPoint x="295" y="700" />
            </Array>
          </mxGeometry>
        </mxCell>
        <mxCell id="cKlX9IGwv4N4A4zVIS19-99" value="" style="endArrow=none;dashed=1;html=1;rounded=0;" edge="1" parent="1" target="cKlX9IGwv4N4A4zVIS19-101">
          <mxGeometry width="50" height="50" relative="1" as="geometry">
            <mxPoint x="265" y="860" as="sourcePoint" />
            <mxPoint x="265" y="480" as="targetPoint" />
          </mxGeometry>
        </mxCell>
        <mxCell id="cKlX9IGwv4N4A4zVIS19-100" value="" style="endArrow=classic;endFill=1;html=1;rounded=0;" edge="1" parent="1">
          <mxGeometry width="160" relative="1" as="geometry">
            <mxPoint x="560" y="518.8600000000001" as="sourcePoint" />
            <mxPoint x="270" y="518.8600000000001" as="targetPoint" />
          </mxGeometry>
        </mxCell>
        <mxCell id="cKlX9IGwv4N4A4zVIS19-101" value="" style="html=1;points=[[0,0,0,0,5],[0,1,0,0,-5],[1,0,0,0,5],[1,1,0,0,-5]];perimeter=orthogonalPerimeter;outlineConnect=0;targetShapes=umlLifeline;portConstraint=eastwest;newEdgeStyle={&quot;curved&quot;:0,&quot;rounded&quot;:0};" vertex="1" parent="1">
          <mxGeometry x="260" y="495" width="10" height="105" as="geometry" />
        </mxCell>
        <mxCell id="cKlX9IGwv4N4A4zVIS19-102" value="" style="html=1;points=[[0,0,0,0,5],[0,1,0,0,-5],[1,0,0,0,5],[1,1,0,0,-5]];perimeter=orthogonalPerimeter;outlineConnect=0;targetShapes=umlLifeline;portConstraint=eastwest;newEdgeStyle={&quot;curved&quot;:0,&quot;rounded&quot;:0};" vertex="1" parent="1">
          <mxGeometry x="260" y="630" width="10" height="100" as="geometry" />
        </mxCell>
      </root>
    </mxGraphModel>
  </diagram>
</mxfile>
